<svg width="16" height="16" viewBox="0 0 16 16" fill="none" xmlns="http://www.w3.org/2000/svg">
<g clip-path="url(#clip0_40_1045)">
<path d="M0.666504 0.666748H3.33317L5.11984 9.59342C5.1808 9.90035 5.34778 10.1761 5.59153 10.3723C5.83529 10.5685 6.1403 10.6727 6.45317 10.6667H12.9332C13.246 10.6727 13.551 10.5685 13.7948 10.3723C14.0386 10.1761 14.2055 9.90035 14.2665 9.59342L15.3332 4.00008H3.99984M13.9998 14.0001C13.9998 14.3683 13.7014 14.6667 13.3332 14.6667C12.965 14.6667 12.6665 14.3683 12.6665 14.0001C12.6665 13.6319 12.965 13.3334 13.3332 13.3334C13.7014 13.3334 13.9998 13.6319 13.9998 14.0001ZM6.6665 14.0001C6.6665 14.3683 6.36803 14.6667 5.99984 14.6667C5.63165 14.6667 5.33317 14.3683 5.33317 14.0001C5.33317 13.6319 5.63165 13.3334 5.99984 13.3334C6.36803 13.3334 6.6665 13.6319 6.6665 14.0001Z" stroke="#111212" stroke-width="1.33333" stroke-linecap="round" stroke-linejoin="round"/>
</g>
<defs>
<clipPath id="clip0_40_1045">
<rect width="16" height="16" fill="white"/>
</clipPath>
</defs>
</svg>
