<svg width="105" height="48" viewBox="0 0 105 48" fill="none" xmlns="http://www.w3.org/2000/svg">
<circle opacity="0.2" cx="51" cy="24" r="24" fill="#D476F8"/>
<path d="M18.6788 22.6219C18.6966 22.6219 18.7055 22.6486 18.7055 22.7021C18.7055 22.7912 18.6565 22.9561 18.5584 23.1968C18.4604 23.4286 18.3178 23.7004 18.1306 24.0124C17.9434 24.3244 17.7116 24.6542 17.4353 25.0019C17.1679 25.3495 16.8604 25.6793 16.5127 25.9913C16.3345 26.0359 16.1072 26.0849 15.8308 26.1384C15.5545 26.1829 15.2381 26.2275 14.8815 26.2721C14.5339 26.3166 14.155 26.3657 13.745 26.4191C13.335 26.4637 12.9071 26.5083 12.4614 26.5528C11.9355 27.3818 11.423 28.2064 10.9238 29.0264C10.4336 29.8465 9.97004 30.6398 9.53326 31.4064C9.09649 32.1819 8.69091 32.9262 8.31653 33.6393C7.95107 34.3524 7.63463 35.0165 7.36722 35.6315C7.17112 35.7117 6.88142 35.792 6.49813 35.8722C6.11484 35.9613 5.71372 36.046 5.29477 36.1262C4.88474 36.2064 4.50145 36.2822 4.1449 36.3535C3.78835 36.4248 3.53876 36.4828 3.39614 36.5273C4.23403 34.7357 5.07639 33.0465 5.92319 31.4599C6.77891 29.8821 7.65246 28.3623 8.54384 26.9005C8.08032 26.9361 7.64355 26.9718 7.23351 27.0075C6.82348 27.0342 6.46247 27.0565 6.15049 27.0743C5.83851 27.0921 5.58447 27.11 5.38837 27.1278C5.19226 27.1367 5.07639 27.1412 5.04073 27.1412C4.98725 27.1412 4.96051 27.1055 4.96051 27.0342C4.96051 26.9361 5.00507 26.7935 5.09421 26.6063C5.18335 26.4191 5.28586 26.232 5.40174 26.0448C5.52653 25.8487 5.65132 25.6793 5.77611 25.5367C5.90982 25.3851 6.01233 25.3005 6.08364 25.2826C6.77891 25.2202 7.43407 25.1534 8.04912 25.0821C8.67309 25.0108 9.26585 24.935 9.82742 24.8548C11.2804 22.5996 12.769 20.4826 14.2932 18.5037C15.8175 16.5249 17.364 14.595 18.9328 12.7142C18.9685 12.6786 18.9863 12.6028 18.9863 12.4869C18.9863 12.4335 18.9685 12.38 18.9328 12.3265C18.9061 12.273 18.8392 12.2641 18.7323 12.2997C16.8336 12.8167 15.1177 13.3917 13.5846 14.0246C12.0514 14.6574 10.6876 15.2992 9.49315 15.9499C8.29871 16.5917 7.26471 17.2201 6.39116 17.8352C5.52653 18.4502 4.81343 19.0074 4.25186 19.5065C3.6903 19.9968 3.27581 20.4024 3.00839 20.7233C2.74098 21.0441 2.60727 21.2313 2.60727 21.2848C2.60727 21.3116 2.61619 21.3517 2.63402 21.4052C2.66076 21.4497 2.74098 21.472 2.87469 21.472C3.15993 21.472 3.46299 21.4319 3.78389 21.3517C4.1137 21.2714 4.43905 21.1689 4.75995 21.0441C5.08976 20.9194 5.40619 20.7856 5.70926 20.643C6.01233 20.4915 6.29311 20.3489 6.55161 20.2152C6.56053 20.4202 6.56944 20.6609 6.57835 20.9372C6.59618 21.2046 6.60955 21.4765 6.61846 21.7528C6.63629 22.0291 6.64966 22.2965 6.65858 22.555C6.6764 22.8046 6.68532 23.0096 6.68532 23.1701C6.57835 23.2236 6.40453 23.2815 6.16386 23.3439C5.92319 23.3974 5.62904 23.4509 5.2814 23.5043C4.94268 23.5489 4.55493 23.589 4.11816 23.6247C3.6903 23.6514 3.23124 23.6648 2.74098 23.6648C2.6875 23.6648 2.64293 23.6603 2.60727 23.6514C2.58053 23.6425 2.55379 23.6381 2.52705 23.6381C2.44683 23.6291 2.32649 23.5578 2.16604 23.4241C2.01451 23.2904 1.84515 23.1211 1.65796 22.916C1.47077 22.711 1.27912 22.4882 1.08302 22.2475C0.886919 21.9979 0.708644 21.7617 0.548196 21.5389C0.387748 21.3071 0.254042 21.0976 0.147077 20.9104C0.0490257 20.7143 0 20.5717 0 20.4826C0 19.9388 0.20056 19.3773 0.601679 18.7979C1.01171 18.2096 1.55991 17.6257 2.24627 17.0463C2.94154 16.4669 3.74378 15.8965 4.65298 15.3349C5.56218 14.7733 6.52041 14.2429 7.52767 13.7438C8.53492 13.2446 9.56001 12.7855 10.6029 12.3666C11.6458 11.9387 12.6442 11.5733 13.5979 11.2702C14.5517 10.9671 15.4297 10.7309 16.232 10.5616C17.0431 10.3833 17.7116 10.2942 18.2375 10.2942C18.3891 10.2942 18.5629 10.3521 18.759 10.468C18.964 10.5839 19.1646 10.7354 19.3607 10.9226C19.5657 11.1098 19.7663 11.3192 19.9624 11.551C20.1585 11.7828 20.3323 12.0145 20.4838 12.2463C20.6443 12.478 20.7735 12.7009 20.8716 12.9148C20.9696 13.1198 21.0231 13.2892 21.032 13.4229C21.032 13.4764 20.9384 13.6546 20.7512 13.9577C20.573 14.2519 20.3234 14.6441 20.0025 15.1343C19.6816 15.6157 19.3027 16.1861 18.866 16.8458C18.4292 17.4965 17.9523 18.2096 17.4353 18.9851C16.9183 19.7517 16.3701 20.5673 15.7907 21.4319C15.2202 22.2876 14.6408 23.1701 14.0525 24.0793C14.8548 23.8921 15.5411 23.7138 16.1116 23.5445C16.6821 23.3662 17.1545 23.2102 17.5289 23.0765C17.9033 22.9428 18.1841 22.8358 18.3713 22.7556C18.5584 22.6664 18.661 22.6219 18.6788 22.6219Z" fill="#111212"/>
<path d="M17.3685 31.9813C17.832 31.188 18.3222 30.2877 18.8392 29.2805C19.3562 28.2643 19.8821 27.1768 20.417 26.018C20.9518 24.8503 21.4866 23.6202 22.0214 22.3277C22.5563 21.0352 23.0733 19.7115 23.5724 18.3566C24.0716 16.9928 24.544 15.6068 24.9897 14.1984C25.4354 12.79 25.8365 11.3905 26.1931 10C26.4516 10.2496 26.719 10.4992 26.9953 10.7488C27.2806 10.9894 27.5569 11.2301 27.8243 11.4708C28.0917 11.7025 28.3413 11.9343 28.573 12.166C28.8137 12.3889 29.0143 12.5984 29.1747 12.7945C28.8449 13.7571 28.4616 14.7733 28.0249 15.843C27.5881 16.9037 27.1246 17.9867 26.6343 19.092C26.1441 20.1884 25.636 21.2804 25.1101 22.3678C24.5931 23.4553 24.0805 24.4982 23.5724 25.4966C23.0733 26.4949 22.5964 27.4309 22.1418 28.3044C21.6872 29.169 21.2816 29.9312 20.925 30.5908C21.4599 30.5908 22.0927 30.5952 22.8237 30.6042C23.5546 30.6042 24.3479 30.6086 25.2036 30.6175C26.0594 30.6264 26.9597 30.6398 27.9045 30.6576C28.8494 30.6755 29.8031 30.6977 30.7658 30.7245C30.6232 30.9206 30.4583 31.1345 30.2711 31.3663C30.0839 31.598 29.8834 31.8343 29.6694 32.0749C29.4644 32.3245 29.2505 32.5652 29.0277 32.7969C28.8137 33.0376 28.5998 33.2605 28.3859 33.4655C27.5836 33.4209 26.8081 33.363 26.0594 33.2917C25.3195 33.2203 24.602 33.1357 23.9067 33.0376C23.2114 32.9485 22.5295 32.8549 21.861 32.7568C21.2014 32.6588 20.5462 32.5607 19.8955 32.4627C19.7975 32.6409 19.7172 32.7702 19.6548 32.8504C19.6014 32.9306 19.5791 32.9618 19.588 32.944L17.3685 31.9813Z" fill="#111212"/>
<path d="M34.2689 29.7752C34.2689 30.0426 34.367 30.1763 34.5631 30.1763C34.7681 30.1763 35.04 30.0158 35.3787 29.6949C35.7174 29.3651 36.0695 28.9506 36.435 28.4515C36.4172 28.3534 36.4038 28.2687 36.3949 28.1974C36.3949 28.1172 36.3949 28.0459 36.3949 27.9835C36.3949 27.8052 36.4127 27.5958 36.4484 27.3551C36.4929 27.1055 36.5954 26.8247 36.7559 26.5127C36.8628 26.2721 36.9921 26.0359 37.1436 25.8041C37.2684 25.5991 37.42 25.3807 37.5982 25.1489C37.7765 24.9083 37.9726 24.6854 38.1865 24.4804L38.2668 24.4002C38.3559 24.5071 38.4718 24.6542 38.6144 24.8414C38.7659 25.0197 38.913 25.2069 39.0556 25.403C39.2072 25.5902 39.3364 25.764 39.4434 25.9244C39.5593 26.0849 39.6306 26.1963 39.6573 26.2587C39.6573 26.642 39.586 27.0253 39.4434 27.4086C39.3097 27.7919 39.1269 28.1707 38.8952 28.5451C39.43 28.5094 39.9247 28.3757 40.3793 28.144C40.8428 27.9033 41.3242 27.5155 41.8233 26.9807C41.9036 27.0609 42.0061 27.1724 42.1309 27.315C42.2646 27.4487 42.3715 27.5646 42.4518 27.6626C42.0774 28.0548 41.7075 28.3802 41.342 28.6387C40.9855 28.8972 40.6245 29.1022 40.259 29.2537C39.9024 29.4053 39.537 29.5167 39.1626 29.588C38.7882 29.6504 38.4049 29.6816 38.0127 29.6816C37.7097 30.0025 37.3843 30.2966 37.0367 30.564C36.689 30.8315 36.3325 31.0632 35.967 31.2593C35.6105 31.4554 35.2539 31.6069 34.8974 31.7139C34.5408 31.8209 34.2021 31.8744 33.8812 31.8744C33.6138 31.8744 33.3375 31.7941 33.0522 31.6337C32.767 31.4732 32.5085 31.2771 32.2767 31.0454C32.045 30.8047 31.8533 30.5507 31.7018 30.2833C31.5502 30.0158 31.4745 29.7796 31.4745 29.5746C31.4745 28.8972 31.5681 28.2242 31.7553 27.5556C31.9335 26.8871 32.2188 26.2632 32.611 25.6838C32.9943 25.0954 33.4845 24.5785 34.0817 24.1328C34.6879 23.6871 35.4054 23.3484 36.2344 23.1166C36.2612 23.0988 36.3057 23.0854 36.3681 23.0765C36.4394 23.0676 36.4974 23.0631 36.5419 23.0631C36.6667 23.0631 36.796 23.1121 36.9297 23.2102C37.0723 23.2993 37.2016 23.4018 37.3174 23.5177C37.4422 23.6336 37.5447 23.7495 37.625 23.8654C37.7052 23.9723 37.7453 24.0436 37.7453 24.0793C37.7275 24.1238 37.6606 24.1818 37.5447 24.2531C37.4289 24.3155 37.2729 24.4269 37.0768 24.5874C36.8807 24.7478 36.6489 24.9796 36.3815 25.2826C36.1141 25.5768 35.8199 25.969 35.499 26.4593C35.0177 27.1813 34.6923 27.8364 34.523 28.4247C34.3536 29.0041 34.2689 29.4543 34.2689 29.7752Z" fill="#111212"/>
<path d="M48.1209 31.8744C47.9961 31.8744 47.8268 31.8298 47.6128 31.7407C47.4078 31.6515 47.1939 31.5312 46.971 31.3796C46.7571 31.237 46.5521 31.0721 46.356 30.8849C46.1599 30.6888 46.0217 30.4838 45.9415 30.2699C45.478 30.7067 45.0145 31.0766 44.551 31.3796C44.0874 31.6827 43.6551 31.8476 43.254 31.8744C43.1203 31.8744 42.9242 31.8164 42.6657 31.7005C42.4161 31.5847 42.171 31.4331 41.9303 31.2459C41.6807 31.0677 41.4668 30.8627 41.2885 30.6309C41.1013 30.3902 41.0077 30.1495 41.0077 29.9089C41.0077 29.3206 41.0746 28.7189 41.2083 28.1038C41.3331 27.4799 41.4935 26.8604 41.6896 26.2453C41.8768 25.6303 42.0818 25.0331 42.3047 24.4537C42.5275 23.8654 42.7326 23.3082 42.9197 22.7823C43.3743 22.9873 43.82 23.2191 44.2568 23.4776C44.6936 23.7272 45.0992 24.0169 45.4735 24.3467C45.3398 24.6141 45.2017 24.9305 45.059 25.296C44.9164 25.6615 44.7783 26.0403 44.6446 26.4325C44.5108 26.8247 44.3816 27.2214 44.2568 27.6225C44.1409 28.0236 44.0384 28.3935 43.9493 28.7323C43.8601 29.071 43.7888 29.3696 43.7354 29.6281C43.6819 29.8866 43.6551 30.0693 43.6551 30.1763C43.6551 30.2476 43.6685 30.3145 43.6952 30.3769C43.7309 30.4303 43.7844 30.4571 43.8557 30.4571C43.9894 30.4571 44.1365 30.408 44.2969 30.31C44.4663 30.2119 44.6401 30.0827 44.8184 29.9222C45.0056 29.7618 45.1928 29.5791 45.3799 29.3741C45.576 29.1601 45.7677 28.9373 45.9549 28.7055C46.0173 28.2331 46.1109 27.7651 46.2357 27.3016C46.3605 26.8381 46.4986 26.379 46.6502 25.9244C46.8017 25.4698 46.9621 25.0241 47.1315 24.5874C47.3009 24.1417 47.4658 23.7049 47.6262 23.277C48.0808 23.4821 48.5265 23.7138 48.9633 23.9723C49.4 24.2219 49.8056 24.5116 50.18 24.8414C50.0463 25.1088 49.9126 25.4119 49.7789 25.7506C49.6452 26.0893 49.5159 26.4414 49.3911 26.8069C49.2752 27.1634 49.1638 27.52 49.0569 27.8765C48.9499 28.2242 48.8563 28.554 48.7761 28.866C48.7048 29.169 48.6468 29.4364 48.6023 29.6682C48.5577 29.9 48.5354 30.0693 48.5354 30.1763C48.5354 30.2476 48.5488 30.3145 48.5755 30.3769C48.6023 30.4303 48.6513 30.4571 48.7226 30.4571C48.8652 30.4571 49.0301 30.408 49.2173 30.31C49.4045 30.203 49.5961 30.0649 49.7922 29.8955C49.9973 29.7172 50.2023 29.5122 50.4073 29.2805C50.6123 29.0487 50.8129 28.808 51.009 28.5584C50.9288 28.2821 50.8886 27.9657 50.8886 27.6091C50.8886 27.3239 50.9377 26.9807 51.0357 26.5796C51.1338 26.1696 51.2586 25.764 51.4101 25.3629C51.5616 24.9617 51.7265 24.5918 51.9048 24.2531C52.092 23.9055 52.2658 23.647 52.4263 23.4776C52.6313 23.5489 52.8408 23.6559 53.0547 23.7985C53.2775 23.9322 53.4825 24.0793 53.6697 24.2397C53.8569 24.3913 54.0085 24.5428 54.1243 24.6943C54.2491 24.8459 54.3204 24.9662 54.3383 25.0553C54.3383 25.2514 54.2892 25.4877 54.1912 25.764C54.0931 26.0403 53.955 26.3389 53.7767 26.6598C53.6073 26.9807 53.4023 27.315 53.1617 27.6626C52.9299 28.0102 52.6759 28.3579 52.3995 28.7055C52.56 28.9016 52.8318 28.9997 53.2151 28.9997C53.6608 28.9997 54.1065 28.8437 54.5522 28.5317C54.9979 28.2108 55.5104 27.7829 56.0898 27.2481C56.179 27.3283 56.2859 27.4353 56.4107 27.569C56.5355 27.6938 56.638 27.8052 56.7182 27.9033C55.9695 28.6431 55.2965 29.1824 54.6993 29.5211C54.111 29.8509 53.536 30.0158 52.9745 30.0158C52.4396 30.0158 51.9984 29.8688 51.6508 29.5746C51.3566 29.8866 51.0535 30.1807 50.7416 30.4571C50.4385 30.7245 50.1354 30.9607 49.8324 31.1657C49.5293 31.3707 49.2307 31.5356 48.9365 31.6604C48.6513 31.7852 48.3794 31.8565 48.1209 31.8744Z" fill="#111212"/>
<path d="M65.3824 27.8498C64.5623 28.652 63.7868 29.325 63.0559 29.8688C62.3339 30.4125 61.6431 30.8493 60.9835 31.1791C60.3239 31.5089 59.691 31.7451 59.0848 31.8877C58.4876 32.0304 57.9038 32.1017 57.3333 32.1017C57.0926 32.1017 56.8252 32.0125 56.5311 31.8343C56.2369 31.656 55.965 31.4376 55.7154 31.1791C55.4569 30.9295 55.243 30.6665 55.0737 30.3902C54.9043 30.1139 54.8196 29.8777 54.8196 29.6816C54.8196 28.9506 54.9221 28.2821 55.1271 27.676C55.3232 27.0609 55.5862 26.5083 55.916 26.018C56.2458 25.5278 56.6202 25.0954 57.0391 24.7211C57.467 24.3467 57.9082 24.0347 58.3628 23.7851C58.8263 23.5355 59.2854 23.3484 59.74 23.2236C60.1946 23.0988 60.6136 23.0364 60.9968 23.0364C61.2732 23.0364 61.545 23.1166 61.8125 23.277C62.0888 23.4375 62.3384 23.6336 62.5612 23.8654C62.784 24.0971 62.9623 24.3422 63.096 24.6007C63.2387 24.8503 63.31 25.0687 63.31 25.2559C63.31 25.559 63.1807 25.8709 62.9222 26.1918C62.6726 26.5038 62.3161 26.8247 61.8526 27.1545C61.389 27.4843 60.8319 27.8231 60.1812 28.1707C59.5305 28.5094 58.813 28.8526 58.0286 29.2002C58.0018 29.4142 57.9884 29.6236 57.9884 29.8287C57.9884 30.105 58.0464 30.2922 58.1623 30.3902C58.2871 30.4883 58.5144 30.5373 58.8442 30.5373C59.4325 30.5373 59.9851 30.4392 60.5021 30.2431C61.028 30.047 61.5317 29.793 62.013 29.481C62.4944 29.169 62.9579 28.8125 63.4036 28.4114C63.8492 28.0102 64.2905 27.6047 64.7272 27.1946L65.3824 27.8498ZM60.6759 24.5071C60.4977 24.5071 60.3016 24.6052 60.0876 24.8013C59.8737 24.9885 59.6598 25.2381 59.4459 25.5501C59.2319 25.862 59.0269 26.223 58.8308 26.6331C58.6347 27.0342 58.4653 27.4531 58.3227 27.8899C58.6525 27.676 58.9734 27.4487 59.2854 27.208C59.6063 26.9673 59.8915 26.7178 60.1411 26.4593C60.3907 26.1918 60.5913 25.92 60.7428 25.6436C60.8943 25.3673 60.9701 25.091 60.9701 24.8147C60.9701 24.7344 60.9434 24.6631 60.8899 24.6007C60.8453 24.5383 60.774 24.5071 60.6759 24.5071Z" fill="#111212"/>
<path d="M67.5618 30.203C67.7044 30.203 67.8961 30.1406 68.1368 30.0158C68.3863 29.8911 68.6582 29.7351 68.9524 29.5479C69.2465 29.3518 69.5541 29.1378 69.8749 28.9061C70.1958 28.6743 70.4945 28.447 70.7708 28.2242C71.056 28.0013 71.3101 27.7963 71.5329 27.6091C71.7558 27.4219 71.9207 27.2838 72.0276 27.1946C72.1078 27.2749 72.2014 27.3774 72.3084 27.5022C72.4243 27.627 72.5312 27.7428 72.6293 27.8498C72.4332 28.0459 72.1881 28.2866 71.8939 28.5718C71.5998 28.8481 71.2789 29.1334 70.9312 29.4275C70.5925 29.7217 70.236 30.0158 69.8616 30.31C69.4961 30.6042 69.1351 30.8671 68.7785 31.0989C68.4309 31.3306 68.1056 31.5178 67.8025 31.6604C67.4994 31.8031 67.2454 31.8744 67.0404 31.8744C66.764 31.8744 66.4699 31.7763 66.1579 31.5802C65.8548 31.3841 65.5696 31.1568 65.3022 30.8983C65.0348 30.6309 64.8075 30.3635 64.6203 30.0961C64.4331 29.8287 64.3261 29.6281 64.2994 29.4944C64.2816 29.4409 64.2726 29.3785 64.2726 29.3072C64.2726 29.227 64.2726 29.1423 64.2726 29.0532C64.2726 28.6075 64.3306 28.0459 64.4465 27.3685C64.5534 26.6821 64.7005 25.9601 64.8877 25.2024C65.0749 24.4358 65.2888 23.6782 65.5295 22.9294C65.7791 22.1717 66.0376 21.5032 66.305 20.9238C66.8487 19.7383 67.4058 18.6865 67.9763 17.7683C68.5557 16.8502 69.1217 16.0524 69.6744 15.375C70.227 14.6886 70.7574 14.1137 71.2655 13.6502C71.7736 13.1867 72.2282 12.8123 72.6293 12.5271C73.0393 12.2418 73.3825 12.0368 73.6588 11.912C73.9441 11.7872 74.1402 11.7248 74.2471 11.7248C74.4165 11.7872 74.5859 11.8808 74.7552 12.0056C74.9335 12.1215 75.0984 12.2463 75.2499 12.38C75.4015 12.5137 75.5352 12.6474 75.6511 12.7811C75.7669 12.9059 75.8516 12.9995 75.9051 13.0619C75.9764 13.1332 76.021 13.2045 76.0388 13.2758C76.0655 13.3382 76.0789 13.4229 76.0789 13.5298C76.0789 13.7438 76.0254 14.0379 75.9185 14.4123C75.8115 14.7867 75.611 15.2636 75.3168 15.843C75.0226 16.4134 74.6126 17.0998 74.0867 17.902C73.5697 18.7043 72.8923 19.6402 72.0544 20.7099C71.6622 21.2091 71.2477 21.7171 70.8109 22.2341C70.4365 22.6798 70.0042 23.1656 69.5139 23.6915C69.0237 24.2174 68.5201 24.7211 68.0031 25.2024C67.7446 26.1829 67.5618 27.0476 67.4549 27.7963C67.3568 28.5451 67.3078 29.1289 67.3078 29.5479C67.3078 29.8242 67.3301 30.0025 67.3746 30.0827C67.4192 30.1629 67.4816 30.203 67.5618 30.203ZM69.7011 20.4024C69.5496 20.7411 69.407 21.0709 69.2733 21.3918C69.1485 21.7127 69.0281 22.0291 68.9123 22.3411C69.1886 22.0291 69.4382 21.7305 69.661 21.4453C69.8928 21.16 70.0889 20.9149 70.2493 20.7099C70.4365 20.4692 70.6059 20.2419 70.7574 20.028C71.3814 19.1544 71.9207 18.3522 72.3753 17.6213C72.8299 16.8903 73.2042 16.2485 73.4984 15.6959C73.7925 15.1343 74.0065 14.6708 74.1402 14.3053C74.2828 13.931 74.3541 13.6636 74.3541 13.5031C74.3541 13.4585 74.3497 13.4273 74.3407 13.4095C74.3407 13.3828 74.3185 13.3694 74.2739 13.3694C74.1937 13.3694 74.0109 13.5031 73.7257 13.7705C73.4404 14.029 73.0884 14.4435 72.6694 15.014C72.2594 15.5845 71.7959 16.3154 71.2789 17.2068C70.7708 18.0892 70.2449 19.1544 69.7011 20.4024Z" fill="#111212"/>
<path d="M73.6321 29.7752C73.6321 30.0426 73.7301 30.1763 73.9262 30.1763C74.1313 30.1763 74.4031 30.0158 74.7419 29.6949C75.0806 29.3651 75.4327 28.9506 75.7981 28.4515C75.7803 28.3534 75.7669 28.2687 75.758 28.1974C75.758 28.1172 75.758 28.0459 75.758 27.9835C75.758 27.8052 75.7759 27.5958 75.8115 27.3551C75.8561 27.1055 75.9586 26.8247 76.119 26.5127C76.226 26.2721 76.3553 26.0359 76.5068 25.8041C76.6316 25.5991 76.7831 25.3807 76.9614 25.1489C77.1397 24.9083 77.3358 24.6854 77.5497 24.4804L77.6299 24.4002C77.7191 24.5071 77.8349 24.6542 77.9775 24.8414C78.1291 25.0197 78.2762 25.2069 78.4188 25.403C78.5703 25.5902 78.6996 25.764 78.8065 25.9244C78.9224 26.0849 78.9937 26.1963 79.0205 26.2587C79.0205 26.642 78.9492 27.0253 78.8065 27.4086C78.6728 27.7919 78.4901 28.1707 78.2583 28.5451C78.7932 28.5094 79.2879 28.3757 79.7425 28.144C80.206 27.9033 80.6873 27.5155 81.1865 26.9807C81.2667 27.0609 81.3692 27.1724 81.494 27.315C81.6277 27.4487 81.7347 27.5646 81.8149 27.6626C81.4405 28.0548 81.0706 28.3802 80.7052 28.6387C80.3486 28.8972 79.9876 29.1022 79.6221 29.2537C79.2656 29.4053 78.9001 29.5167 78.5257 29.588C78.1514 29.6504 77.7681 29.6816 77.3759 29.6816C77.0728 30.0025 76.7475 30.2966 76.3998 30.564C76.0522 30.8315 75.6956 31.0632 75.3302 31.2593C74.9736 31.4554 74.6171 31.6069 74.2605 31.7139C73.904 31.8209 73.5652 31.8744 73.2443 31.8744C72.9769 31.8744 72.7006 31.7941 72.4154 31.6337C72.1301 31.4732 71.8716 31.2771 71.6399 31.0454C71.4081 30.8047 71.2165 30.5507 71.0649 30.2833C70.9134 30.0158 70.8376 29.7796 70.8376 29.5746C70.8376 28.8972 70.9312 28.2242 71.1184 27.5556C71.2967 26.8871 71.5819 26.2632 71.9741 25.6838C72.3574 25.0954 72.8477 24.5785 73.4449 24.1328C74.051 23.6871 74.7686 23.3484 75.5976 23.1166C75.6243 23.0988 75.6689 23.0854 75.7313 23.0765C75.8026 23.0676 75.8605 23.0631 75.9051 23.0631C76.0299 23.0631 76.1591 23.1121 76.2928 23.2102C76.4355 23.2993 76.5647 23.4018 76.6806 23.5177C76.8054 23.6336 76.9079 23.7495 76.9881 23.8654C77.0683 23.9723 77.1085 24.0436 77.1085 24.0793C77.0906 24.1238 77.0238 24.1818 76.9079 24.2531C76.792 24.3155 76.636 24.4269 76.4399 24.5874C76.2438 24.7478 76.0121 24.9796 75.7447 25.2826C75.4772 25.5768 75.1831 25.969 74.8622 26.4593C74.3809 27.1813 74.0555 27.8364 73.8861 28.4247C73.7168 29.0041 73.6321 29.4543 73.6321 29.7752Z" fill="#111212"/>
<path d="M87.4841 31.8744C87.3593 31.8744 87.1899 31.8298 86.976 31.7407C86.771 31.6515 86.557 31.5312 86.3342 31.3796C86.1203 31.237 85.9153 31.0721 85.7191 30.8849C85.523 30.6888 85.3849 30.4838 85.3047 30.2699C84.8411 30.7067 84.3776 31.0766 83.9141 31.3796C83.4506 31.6827 83.0183 31.8476 82.6172 31.8744C82.4835 31.8744 82.2874 31.8164 82.0289 31.7005C81.7793 31.5847 81.5341 31.4331 81.2935 31.2459C81.0439 31.0677 80.83 30.8627 80.6517 30.6309C80.4645 30.3902 80.3709 30.1495 80.3709 29.9089C80.3709 29.3206 80.4377 28.7189 80.5714 28.1038C80.6962 27.4799 80.8567 26.8604 81.0528 26.2453C81.24 25.6303 81.445 25.0331 81.6678 24.4537C81.8907 23.8654 82.0957 23.3082 82.2829 22.7823C82.7375 22.9873 83.1832 23.2191 83.62 23.4776C84.0567 23.7272 84.4623 24.0169 84.8367 24.3467C84.703 24.6141 84.5648 24.9305 84.4222 25.296C84.2796 25.6615 84.1414 26.0403 84.0077 26.4325C83.874 26.8247 83.7448 27.2214 83.62 27.6225C83.5041 28.0236 83.4016 28.3935 83.3124 28.7323C83.2233 29.071 83.152 29.3696 83.0985 29.6281C83.045 29.8866 83.0183 30.0693 83.0183 30.1763C83.0183 30.2476 83.0316 30.3145 83.0584 30.3769C83.094 30.4303 83.1475 30.4571 83.2188 30.4571C83.3526 30.4571 83.4996 30.408 83.6601 30.31C83.8294 30.2119 84.0033 30.0827 84.1815 29.9222C84.3687 29.7618 84.5559 29.5791 84.7431 29.3741C84.9392 29.1601 85.1308 28.9373 85.318 28.7055C85.3804 28.2331 85.474 27.7651 85.5988 27.3016C85.7236 26.8381 85.8618 26.379 86.0133 25.9244C86.1648 25.4698 86.3253 25.0241 86.4946 24.5874C86.664 24.1417 86.8289 23.7049 86.9894 23.277C87.444 23.4821 87.8896 23.7138 88.3264 23.9723C88.7632 24.2219 89.1688 24.5116 89.5432 24.8414C89.4094 25.1088 89.2757 25.4119 89.142 25.7506C89.0083 26.0893 88.8791 26.4414 88.7543 26.8069C88.6384 27.1634 88.527 27.52 88.42 27.8765C88.313 28.2242 88.2195 28.554 88.1392 28.866C88.0679 29.169 88.01 29.4364 87.9654 29.6682C87.9209 29.9 87.8986 30.0693 87.8986 30.1763C87.8986 30.2476 87.9119 30.3145 87.9387 30.3769C87.9654 30.4303 88.0145 30.4571 88.0858 30.4571C88.2284 30.4571 88.3933 30.408 88.5805 30.31C88.7677 30.203 88.9593 30.0649 89.1554 29.8955C89.3604 29.7172 89.5654 29.5122 89.7705 29.2805C89.9755 29.0487 90.176 28.808 90.3721 28.5584C90.2919 28.2821 90.2518 27.9657 90.2518 27.6091C90.2518 27.3239 90.3008 26.9807 90.3989 26.5796C90.4969 26.1696 90.6217 25.764 90.7732 25.3629C90.9248 24.9617 91.0897 24.5918 91.268 24.2531C91.4552 23.9055 91.629 23.647 91.7894 23.4776C91.9944 23.5489 92.2039 23.6559 92.4178 23.7985C92.6407 23.9322 92.8457 24.0793 93.0329 24.2397C93.2201 24.3913 93.3716 24.5428 93.4875 24.6943C93.6123 24.8459 93.6836 24.9662 93.7014 25.0553C93.7014 25.2514 93.6524 25.4877 93.5543 25.764C93.4563 26.0403 93.3181 26.3389 93.1399 26.6598C92.9705 26.9807 92.7655 27.315 92.5248 27.6626C92.293 28.0102 92.039 28.3579 91.7627 28.7055C91.9231 28.9016 92.195 28.9997 92.5783 28.9997C93.024 28.9997 93.4697 28.8437 93.9154 28.5317C94.361 28.2108 94.8736 27.7829 95.453 27.2481C95.5421 27.3283 95.6491 27.4353 95.7739 27.569C95.8987 27.6938 96.0012 27.8052 96.0814 27.9033C95.3326 28.6431 94.6596 29.1824 94.0624 29.5211C93.4741 29.8509 92.8992 30.0158 92.3376 30.0158C91.8028 30.0158 91.3616 29.8688 91.0139 29.5746C90.7198 29.8866 90.4167 30.1807 90.1047 30.4571C89.8017 30.7245 89.4986 30.9607 89.1955 31.1657C88.8924 31.3707 88.5938 31.5356 88.2997 31.6604C88.0144 31.7852 87.7426 31.8565 87.4841 31.8744Z" fill="#111212"/>
<path d="M104.746 27.8498C103.926 28.652 103.15 29.325 102.419 29.8688C101.697 30.4125 101.006 30.8493 100.347 31.1791C99.687 31.5089 99.0541 31.7451 98.448 31.8877C97.8508 32.0304 97.2669 32.1017 96.6964 32.1017C96.4558 32.1017 96.1884 32.0125 95.8942 31.8343C95.6001 31.656 95.3282 31.4376 95.0786 31.1791C94.8201 30.9295 94.6062 30.6665 94.4368 30.3902C94.2674 30.1139 94.1828 29.8777 94.1828 29.6816C94.1828 28.9506 94.2853 28.2821 94.4903 27.676C94.6864 27.0609 94.9493 26.5083 95.2792 26.018C95.609 25.5278 95.9833 25.0954 96.4023 24.7211C96.8302 24.3467 97.2714 24.0347 97.726 23.7851C98.1895 23.5355 98.6486 23.3484 99.1032 23.2236C99.5578 23.0988 99.9767 23.0364 100.36 23.0364C100.636 23.0364 100.908 23.1166 101.176 23.277C101.452 23.4375 101.702 23.6336 101.924 23.8654C102.147 24.0971 102.325 24.3422 102.459 24.6007C102.602 24.8503 102.673 25.0687 102.673 25.2559C102.673 25.559 102.544 25.8709 102.285 26.1918C102.036 26.5038 101.679 26.8247 101.216 27.1545C100.752 27.4843 100.195 27.8231 99.5444 28.1707C98.8937 28.5094 98.1761 28.8526 97.3917 29.2002C97.365 29.4142 97.3516 29.6236 97.3516 29.8287C97.3516 30.105 97.4095 30.2922 97.5254 30.3902C97.6502 30.4883 97.8775 30.5373 98.2073 30.5373C98.7956 30.5373 99.3483 30.4392 99.8653 30.2431C100.391 30.047 100.895 29.793 101.376 29.481C101.858 29.169 102.321 28.8125 102.767 28.4114C103.212 28.0102 103.654 27.6047 104.09 27.1946L104.746 27.8498ZM100.039 24.5071C99.8608 24.5071 99.6647 24.6052 99.4508 24.8013C99.2369 24.9885 99.0229 25.2381 98.809 25.5501C98.5951 25.862 98.3901 26.223 98.194 26.6331C97.9979 27.0342 97.8285 27.4531 97.6859 27.8899C98.0157 27.676 98.3366 27.4487 98.6486 27.208C98.9695 26.9673 99.2547 26.7178 99.5043 26.4593C99.7539 26.1918 99.9544 25.92 100.106 25.6436C100.257 25.3673 100.333 25.091 100.333 24.8147C100.333 24.7344 100.307 24.6631 100.253 24.6007C100.208 24.5383 100.137 24.5071 100.039 24.5071Z" fill="#111212"/>
</svg>
