<svg width="16" height="16" viewBox="0 0 16 16" fill="none" xmlns="http://www.w3.org/2000/svg">
<path d="M12.9601 8.66674C12.8134 8.66674 12.6601 8.62007 12.5134 8.58674C12.2164 8.52129 11.9245 8.4344 11.6401 8.32674C11.3308 8.21423 10.9908 8.22007 10.6856 8.34315C10.3804 8.46622 10.1315 8.69783 9.98673 8.99341L9.84007 9.29341C9.19074 8.93219 8.59406 8.48356 8.06673 7.96007C7.54325 7.43275 7.09461 6.83607 6.7334 6.18674L7.0134 6.00007C7.30898 5.85535 7.54059 5.60643 7.66366 5.3012C7.78674 4.99598 7.79258 4.65602 7.68007 4.34674C7.57422 4.06169 7.48736 3.76994 7.42007 3.47341C7.38673 3.32674 7.36007 3.17341 7.34007 3.02007C7.25911 2.55049 7.01315 2.12524 6.64648 1.8209C6.27981 1.51657 5.81653 1.35315 5.34007 1.36007H3.34007C3.05275 1.35738 2.76823 1.41662 2.50587 1.53376C2.24351 1.65091 2.00947 1.82321 1.81969 2.03893C1.6299 2.25465 1.48882 2.50874 1.40606 2.78388C1.32329 3.05903 1.30079 3.34878 1.34007 3.63341C1.69523 6.42633 2.97075 9.02133 4.96517 11.0085C6.95958 12.9957 9.55921 14.2617 12.3534 14.6067H12.6067C13.0983 14.6075 13.573 14.4271 13.9401 14.1001C14.151 13.9114 14.3195 13.6802 14.4344 13.4216C14.5493 13.163 14.608 12.883 14.6067 12.6001V10.6001C14.5986 10.137 14.4299 9.69111 14.1296 9.33852C13.8293 8.98593 13.4159 8.74849 12.9601 8.66674ZM13.2934 12.6667C13.2933 12.7614 13.273 12.8549 13.2339 12.9412C13.1948 13.0274 13.1378 13.1043 13.0667 13.1667C12.9922 13.2311 12.9051 13.2791 12.811 13.3078C12.7169 13.3365 12.6178 13.3452 12.5201 13.3334C10.0233 13.0133 7.70422 11.8711 5.92854 10.0869C4.15286 8.3028 3.02167 5.9783 2.7134 3.48007C2.70279 3.38242 2.71209 3.28363 2.74074 3.18967C2.76938 3.09571 2.81678 3.00853 2.88007 2.93341C2.94254 2.8623 3.01944 2.8053 3.10565 2.76622C3.19186 2.72714 3.28541 2.70686 3.38007 2.70674H5.38007C5.5351 2.70329 5.68648 2.75399 5.80816 2.85012C5.92984 2.94625 6.01421 3.08179 6.04673 3.23341C6.0734 3.41563 6.10673 3.59563 6.14673 3.77341C6.22375 4.12484 6.32624 4.47019 6.4534 4.80674L5.52007 5.24007C5.44026 5.27669 5.36848 5.32871 5.30884 5.39314C5.2492 5.45757 5.20287 5.53315 5.17251 5.61554C5.14216 5.69792 5.12838 5.7855 5.13197 5.87322C5.13555 5.96095 5.15643 6.0471 5.1934 6.12674C6.15287 8.18191 7.8049 9.83394 9.86007 10.7934C10.0224 10.8601 10.2044 10.8601 10.3667 10.7934C10.4499 10.7637 10.5263 10.7177 10.5915 10.6582C10.6567 10.5987 10.7095 10.5268 10.7467 10.4467L11.1601 9.51341C11.5047 9.63666 11.8565 9.73907 12.2134 9.82007C12.3912 9.86007 12.5712 9.89341 12.7534 9.92007C12.905 9.9526 13.0406 10.037 13.1367 10.1586C13.2328 10.2803 13.2835 10.4317 13.2801 10.5867L13.2934 12.6667Z" fill="#111212"/>
</svg>
