<svg width="16" height="16" viewBox="0 0 16 16" fill="none" xmlns="http://www.w3.org/2000/svg">
<path fill-rule="evenodd" clip-rule="evenodd" d="M16 3.53897C15.4121 3.8 14.7791 3.97653 14.1152 4.0554C14.7932 3.64977 15.3135 3.00657 15.5586 2.24038C14.9238 2.61596 14.2222 2.8892 13.4728 3.03568C12.8755 2.39812 12.0218 2 11.0771 2C9.26548 2 7.79574 3.46948 7.79574 5.28169C7.79574 5.53897 7.82391 5.78873 7.88026 6.02911C5.15208 5.89202 2.73381 4.58685 1.11381 2.59906C0.831132 3.08545 0.669601 3.64977 0.669601 4.2507C0.669601 5.38873 1.24905 6.39343 2.12995 6.98216C1.59277 6.9662 1.08564 6.8169 0.642367 6.57277V6.61315C0.642367 8.20376 1.77402 9.53052 3.27663 9.83099C3.00147 9.90798 2.71128 9.94648 2.41169 9.94648C2.20039 9.94648 1.99378 9.92676 1.79374 9.88826C2.21166 11.1915 3.42314 12.1408 4.86001 12.1662C3.73681 13.0469 2.3206 13.5718 0.783237 13.5718C0.518401 13.5718 0.256383 13.5568 0 13.5268C1.45284 14.4563 3.17896 15 5.03187 15C11.0705 15 14.3715 10 14.3715 5.66291C14.3715 5.52019 14.3687 5.37746 14.3631 5.23756C15.0045 4.77465 15.5614 4.19718 16 3.53897Z" fill="#111212"/>
</svg>
