<svg width="16" height="16" viewBox="0 0 16 16" fill="none" xmlns="http://www.w3.org/2000/svg">
<path fill-rule="evenodd" clip-rule="evenodd" d="M16 8C16 3.58172 12.4183 0 8 0C3.58172 0 0 3.58172 0 8C0 12.4183 3.58172 16 8 16C12.4183 16 16 12.4183 16 8ZM8.47913 3.25871C9.0231 3.3266 9.46269 3.45764 9.94499 3.69289C10.4194 3.925 10.723 4.14446 11.1246 4.54392C11.501 4.92127 11.7097 5.20706 11.9311 5.65072C12.2394 6.26966 12.415 7.00542 12.445 7.81539C12.4561 8.09168 12.4482 8.15328 12.3849 8.23221C12.2647 8.38538 12.0006 8.36009 11.9105 8.18801C11.882 8.13116 11.8741 8.08224 11.8647 7.86118C11.8488 7.52171 11.8251 7.30225 11.7777 7.04015C11.5911 6.0123 11.0977 5.19127 10.3103 4.60234C9.65402 4.10973 8.97564 3.86973 8.08698 3.81763C7.78653 3.80026 7.73435 3.78922 7.66636 3.73711C7.53983 3.63764 7.53353 3.40397 7.65527 3.29503C7.7296 3.22712 7.78178 3.21765 8.03954 3.22555C8.17395 3.23028 8.37159 3.24607 8.47913 3.25871ZM5.05408 3.52396C5.00505 3.49237 4.91967 3.44817 4.86431 3.42923C4.75044 3.38818 4.57177 3.37081 4.46899 3.39292C4.31876 3.42449 4.1306 3.53659 3.72262 3.83975C3.47752 4.02289 3.14071 4.35131 3.06163 4.48393C2.87822 4.79813 2.88928 5.06497 3.11223 5.67915C3.49491 6.73228 4.0547 7.7475 4.78998 8.72641C6.19734 10.6006 7.96997 11.9647 10.1901 12.8789C10.4731 12.9957 10.5649 13.0147 10.7862 13.0036C11.0551 12.991 11.259 12.9073 11.5468 12.6895C11.8647 12.4479 12.3201 11.8826 12.4371 11.5811C12.5478 11.2953 12.5193 11.0364 12.3549 10.8343C12.2616 10.7221 11.5721 10.1601 11.2495 9.93427C11.0045 9.76375 10.6249 9.5285 10.451 9.4385C10.2217 9.32166 9.99402 9.30114 9.77104 9.37693C9.59552 9.43692 9.53701 9.48902 9.28086 9.81113C9.14802 9.97532 9.02625 10.1237 9.01046 10.138C8.99304 10.1522 8.93771 10.1837 8.88554 10.2074C8.67838 10.3037 8.39532 10.2453 7.93201 10.0148C7.57147 9.83636 7.25205 9.61061 6.88994 9.27903C6.58158 8.99797 6.27007 8.63168 6.09615 8.34591C5.8716 7.97802 5.70083 7.49961 5.69922 7.23594C5.69922 7.12226 5.7451 6.96122 5.80203 6.87911C5.82415 6.84595 5.96489 6.72121 6.11511 6.59965C6.48989 6.29808 6.57367 6.20334 6.6243 6.02334C6.6733 5.85598 6.62112 5.6302 6.46459 5.32548C6.19102 4.7918 5.3545 3.72291 5.05408 3.52396ZM8.58824 4.4034C9.5481 4.54392 10.2913 4.98918 10.7783 5.7123C11.0519 6.11966 11.2227 6.59806 11.2812 7.1112C11.3017 7.29909 11.3017 7.64172 11.2796 7.69856C11.259 7.75223 11.1926 7.82487 11.1357 7.85485C11.074 7.88644 10.9428 7.88329 10.87 7.84539C10.7483 7.78382 10.7119 7.68592 10.7119 7.42067C10.7119 7.01174 10.606 6.5807 10.4225 6.24597C10.2138 5.86388 9.91021 5.5481 9.5402 5.32862C9.22235 5.13916 8.75271 4.99864 8.32418 4.96391C8.1692 4.95127 8.08381 4.9197 8.0253 4.85181C7.93519 4.74917 7.92568 4.61023 8.00158 4.49498C8.08381 4.36709 8.21031 4.34656 8.58824 4.4034ZM9.67933 5.97124C9.47535 5.7802 9.23656 5.66178 8.92505 5.59546C8.86024 5.58125 8.73846 5.56704 8.65623 5.5623C8.52343 5.55441 8.49813 5.55757 8.43801 5.58757C8.2783 5.66967 8.23403 5.8923 8.34948 6.02966C8.41271 6.10386 8.47122 6.12596 8.66574 6.14965C9.08003 6.20018 9.32513 6.35491 9.46429 6.65332C9.52911 6.79385 9.56707 6.94542 9.58761 7.16173C9.60501 7.32435 9.62873 7.38435 9.70463 7.44119C9.80901 7.52171 9.98136 7.51855 10.0746 7.4333C10.1743 7.34172 10.1917 7.2312 10.149 6.95016C10.0857 6.51911 9.94182 6.21912 9.67933 5.97124Z" fill="#111212"/>
</svg>
